<mxfile host="app.diagrams.net" agent="Mozilla/5.0 (Macintosh; Intel Mac OS X 10_15_7) AppleWebKit/537.36 (KHTML, like Gecko) Chrome/129.0.0.0 Safari/537.36" version="24.7.7">
  <diagram name="Page-1" id="upOTJ0jmmhxhSmlYqF_-">
    <mxGraphModel dx="1434" dy="785" grid="1" gridSize="10" guides="1" tooltips="1" connect="1" arrows="1" fold="1" page="1" pageScale="1" pageWidth="850" pageHeight="1100" math="0" shadow="0">
      <root>
        <mxCell id="0" />
        <mxCell id="1" parent="0" />
        <mxCell id="Utul95HGGhNCa7YosB5a-2" value="" style="rounded=0;whiteSpace=wrap;html=1;" vertex="1" parent="1">
          <mxGeometry x="200" width="420" height="220" as="geometry" />
        </mxCell>
        <mxCell id="Utul95HGGhNCa7YosB5a-4" value="" style="rounded=1;whiteSpace=wrap;html=1;" vertex="1" parent="1">
          <mxGeometry x="430" y="50" width="120" height="60" as="geometry" />
        </mxCell>
        <mxCell id="Utul95HGGhNCa7YosB5a-5" value="" style="rounded=1;whiteSpace=wrap;html=1;" vertex="1" parent="1">
          <mxGeometry x="440" y="60" width="120" height="60" as="geometry" />
        </mxCell>
        <mxCell id="Utul95HGGhNCa7YosB5a-6" value="" style="rounded=1;whiteSpace=wrap;html=1;" vertex="1" parent="1">
          <mxGeometry x="450" y="70" width="120" height="60" as="geometry" />
        </mxCell>
        <mxCell id="Utul95HGGhNCa7YosB5a-7" value="" style="rounded=1;whiteSpace=wrap;html=1;" vertex="1" parent="1">
          <mxGeometry x="460" y="80" width="120" height="60" as="geometry" />
        </mxCell>
        <mxCell id="Utul95HGGhNCa7YosB5a-8" value="" style="rounded=1;whiteSpace=wrap;html=1;" vertex="1" parent="1">
          <mxGeometry x="470" y="90" width="120" height="60" as="geometry" />
        </mxCell>
        <mxCell id="Utul95HGGhNCa7YosB5a-34" value="" style="rounded=1;whiteSpace=wrap;html=1;" vertex="1" parent="1">
          <mxGeometry x="670" y="470" width="120" height="60" as="geometry" />
        </mxCell>
        <mxCell id="Utul95HGGhNCa7YosB5a-35" value="" style="rounded=1;whiteSpace=wrap;html=1;" vertex="1" parent="1">
          <mxGeometry x="680" y="480" width="120" height="60" as="geometry" />
        </mxCell>
        <mxCell id="Utul95HGGhNCa7YosB5a-36" value="" style="rounded=1;whiteSpace=wrap;html=1;" vertex="1" parent="1">
          <mxGeometry x="690" y="490" width="120" height="60" as="geometry" />
        </mxCell>
        <mxCell id="Utul95HGGhNCa7YosB5a-37" value="" style="rounded=1;whiteSpace=wrap;html=1;" vertex="1" parent="1">
          <mxGeometry x="700" y="500" width="120" height="60" as="geometry" />
        </mxCell>
        <mxCell id="Utul95HGGhNCa7YosB5a-1" value="Client" style="shape=umlActor;verticalLabelPosition=bottom;verticalAlign=top;html=1;outlineConnect=0;" vertex="1" parent="1">
          <mxGeometry y="80" width="30" height="60" as="geometry" />
        </mxCell>
        <mxCell id="Utul95HGGhNCa7YosB5a-12" style="edgeStyle=orthogonalEdgeStyle;rounded=0;orthogonalLoop=1;jettySize=auto;html=1;exitX=1;exitY=0.5;exitDx=0;exitDy=0;entryX=0;entryY=0.5;entryDx=0;entryDy=0;" edge="1" parent="1" source="Utul95HGGhNCa7YosB5a-3" target="Utul95HGGhNCa7YosB5a-7">
          <mxGeometry relative="1" as="geometry" />
        </mxCell>
        <mxCell id="Utul95HGGhNCa7YosB5a-3" value="Load Balancer" style="rounded=0;whiteSpace=wrap;html=1;" vertex="1" parent="1">
          <mxGeometry x="200" y="80" width="120" height="60" as="geometry" />
        </mxCell>
        <mxCell id="Utul95HGGhNCa7YosB5a-9" value="" style="rounded=1;whiteSpace=wrap;html=1;" vertex="1" parent="1">
          <mxGeometry x="480" y="100" width="120" height="60" as="geometry" />
        </mxCell>
        <mxCell id="Utul95HGGhNCa7YosB5a-22" style="edgeStyle=orthogonalEdgeStyle;rounded=0;orthogonalLoop=1;jettySize=auto;html=1;exitX=0.5;exitY=1;exitDx=0;exitDy=0;" edge="1" parent="1" source="Utul95HGGhNCa7YosB5a-10" target="Utul95HGGhNCa7YosB5a-21">
          <mxGeometry relative="1" as="geometry" />
        </mxCell>
        <mxCell id="Utul95HGGhNCa7YosB5a-23" value="audio file" style="edgeLabel;html=1;align=center;verticalAlign=middle;resizable=0;points=[];" vertex="1" connectable="0" parent="Utul95HGGhNCa7YosB5a-22">
          <mxGeometry x="-0.44" relative="1" as="geometry">
            <mxPoint as="offset" />
          </mxGeometry>
        </mxCell>
        <mxCell id="Utul95HGGhNCa7YosB5a-10" value="ML service" style="rounded=1;whiteSpace=wrap;html=1;" vertex="1" parent="1">
          <mxGeometry x="490" y="110" width="120" height="60" as="geometry" />
        </mxCell>
        <mxCell id="Utul95HGGhNCa7YosB5a-16" value="" style="endArrow=classic;html=1;rounded=0;entryX=0;entryY=0.25;entryDx=0;entryDy=0;" edge="1" parent="1" target="Utul95HGGhNCa7YosB5a-3">
          <mxGeometry width="50" height="50" relative="1" as="geometry">
            <mxPoint x="40" y="95" as="sourcePoint" />
            <mxPoint x="360" y="290" as="targetPoint" />
          </mxGeometry>
        </mxCell>
        <mxCell id="Utul95HGGhNCa7YosB5a-18" value="Request" style="edgeLabel;html=1;align=center;verticalAlign=middle;resizable=0;points=[];" vertex="1" connectable="0" parent="Utul95HGGhNCa7YosB5a-16">
          <mxGeometry x="-0.125" relative="1" as="geometry">
            <mxPoint as="offset" />
          </mxGeometry>
        </mxCell>
        <mxCell id="Utul95HGGhNCa7YosB5a-17" value="" style="endArrow=classic;html=1;rounded=0;exitX=0;exitY=0.75;exitDx=0;exitDy=0;" edge="1" parent="1" source="Utul95HGGhNCa7YosB5a-3">
          <mxGeometry width="50" height="50" relative="1" as="geometry">
            <mxPoint x="310" y="340" as="sourcePoint" />
            <mxPoint x="40" y="125" as="targetPoint" />
          </mxGeometry>
        </mxCell>
        <mxCell id="Utul95HGGhNCa7YosB5a-19" value="Text" style="edgeLabel;html=1;align=center;verticalAlign=middle;resizable=0;points=[];" vertex="1" connectable="0" parent="Utul95HGGhNCa7YosB5a-17">
          <mxGeometry x="0.175" relative="1" as="geometry">
            <mxPoint as="offset" />
          </mxGeometry>
        </mxCell>
        <mxCell id="Utul95HGGhNCa7YosB5a-20" value="k8s cluster" style="text;html=1;align=center;verticalAlign=middle;whiteSpace=wrap;rounded=0;" vertex="1" parent="1">
          <mxGeometry x="550" width="60" height="30" as="geometry" />
        </mxCell>
        <mxCell id="Utul95HGGhNCa7YosB5a-21" value="S3" style="shape=cylinder3;whiteSpace=wrap;html=1;boundedLbl=1;backgroundOutline=1;size=15;" vertex="1" parent="1">
          <mxGeometry x="520" y="270" width="60" height="80" as="geometry" />
        </mxCell>
        <mxCell id="Utul95HGGhNCa7YosB5a-33" style="edgeStyle=orthogonalEdgeStyle;rounded=0;orthogonalLoop=1;jettySize=auto;html=1;exitX=1;exitY=0.5;exitDx=0;exitDy=0;entryX=0;entryY=0.5;entryDx=0;entryDy=0;" edge="1" parent="1" source="Utul95HGGhNCa7YosB5a-24" target="Utul95HGGhNCa7YosB5a-25">
          <mxGeometry relative="1" as="geometry" />
        </mxCell>
        <mxCell id="Utul95HGGhNCa7YosB5a-24" value="API Gateway" style="rounded=0;whiteSpace=wrap;html=1;" vertex="1" parent="1">
          <mxGeometry y="490" width="120" height="60" as="geometry" />
        </mxCell>
        <mxCell id="Utul95HGGhNCa7YosB5a-31" style="edgeStyle=orthogonalEdgeStyle;rounded=0;orthogonalLoop=1;jettySize=auto;html=1;exitX=1;exitY=0.5;exitDx=0;exitDy=0;entryX=0;entryY=0.5;entryDx=0;entryDy=0;" edge="1" parent="1" source="Utul95HGGhNCa7YosB5a-25" target="Utul95HGGhNCa7YosB5a-30">
          <mxGeometry relative="1" as="geometry" />
        </mxCell>
        <mxCell id="Utul95HGGhNCa7YosB5a-32" value="request with file url" style="edgeLabel;html=1;align=center;verticalAlign=middle;resizable=0;points=[];" vertex="1" connectable="0" parent="Utul95HGGhNCa7YosB5a-31">
          <mxGeometry x="-0.1077" y="-1" relative="1" as="geometry">
            <mxPoint as="offset" />
          </mxGeometry>
        </mxCell>
        <mxCell id="Utul95HGGhNCa7YosB5a-25" value="API Service" style="rounded=0;whiteSpace=wrap;html=1;" vertex="1" parent="1">
          <mxGeometry x="210" y="490" width="120" height="60" as="geometry" />
        </mxCell>
        <mxCell id="Utul95HGGhNCa7YosB5a-26" value="S3" style="shape=cylinder3;whiteSpace=wrap;html=1;boundedLbl=1;backgroundOutline=1;size=15;" vertex="1" parent="1">
          <mxGeometry x="240" y="630" width="60" height="80" as="geometry" />
        </mxCell>
        <mxCell id="Utul95HGGhNCa7YosB5a-27" style="edgeStyle=orthogonalEdgeStyle;rounded=0;orthogonalLoop=1;jettySize=auto;html=1;exitX=0.5;exitY=1;exitDx=0;exitDy=0;entryX=0.5;entryY=0;entryDx=0;entryDy=0;entryPerimeter=0;" edge="1" parent="1" source="Utul95HGGhNCa7YosB5a-25" target="Utul95HGGhNCa7YosB5a-26">
          <mxGeometry relative="1" as="geometry" />
        </mxCell>
        <mxCell id="Utul95HGGhNCa7YosB5a-28" value="upload file" style="edgeLabel;html=1;align=center;verticalAlign=middle;resizable=0;points=[];" vertex="1" connectable="0" parent="Utul95HGGhNCa7YosB5a-27">
          <mxGeometry x="-0.05" y="2" relative="1" as="geometry">
            <mxPoint as="offset" />
          </mxGeometry>
        </mxCell>
        <mxCell id="Utul95HGGhNCa7YosB5a-42" style="edgeStyle=orthogonalEdgeStyle;rounded=0;orthogonalLoop=1;jettySize=auto;html=1;exitX=1;exitY=0.5;exitDx=0;exitDy=0;entryX=0;entryY=0.5;entryDx=0;entryDy=0;" edge="1" parent="1" source="Utul95HGGhNCa7YosB5a-30" target="Utul95HGGhNCa7YosB5a-36">
          <mxGeometry relative="1" as="geometry" />
        </mxCell>
        <mxCell id="Utul95HGGhNCa7YosB5a-43" value="request" style="edgeLabel;html=1;align=center;verticalAlign=middle;resizable=0;points=[];" vertex="1" connectable="0" parent="Utul95HGGhNCa7YosB5a-42">
          <mxGeometry x="-0.1636" y="1" relative="1" as="geometry">
            <mxPoint as="offset" />
          </mxGeometry>
        </mxCell>
        <mxCell id="Utul95HGGhNCa7YosB5a-30" value="Queue" style="shape=process;whiteSpace=wrap;html=1;backgroundOutline=1;" vertex="1" parent="1">
          <mxGeometry x="460" y="490" width="120" height="60" as="geometry" />
        </mxCell>
        <mxCell id="Utul95HGGhNCa7YosB5a-38" value="ASR service" style="rounded=1;whiteSpace=wrap;html=1;" vertex="1" parent="1">
          <mxGeometry x="710" y="510" width="120" height="60" as="geometry" />
        </mxCell>
        <mxCell id="Utul95HGGhNCa7YosB5a-39" value="DB" style="shape=cylinder3;whiteSpace=wrap;html=1;boundedLbl=1;backgroundOutline=1;size=15;" vertex="1" parent="1">
          <mxGeometry x="740" y="630" width="60" height="80" as="geometry" />
        </mxCell>
        <mxCell id="Utul95HGGhNCa7YosB5a-40" style="edgeStyle=orthogonalEdgeStyle;rounded=0;orthogonalLoop=1;jettySize=auto;html=1;exitX=0.5;exitY=1;exitDx=0;exitDy=0;entryX=0.5;entryY=0;entryDx=0;entryDy=0;entryPerimeter=0;" edge="1" parent="1" source="Utul95HGGhNCa7YosB5a-38" target="Utul95HGGhNCa7YosB5a-39">
          <mxGeometry relative="1" as="geometry" />
        </mxCell>
        <mxCell id="Utul95HGGhNCa7YosB5a-41" value="results" style="edgeLabel;html=1;align=center;verticalAlign=middle;resizable=0;points=[];" vertex="1" connectable="0" parent="Utul95HGGhNCa7YosB5a-40">
          <mxGeometry x="-0.1" relative="1" as="geometry">
            <mxPoint as="offset" />
          </mxGeometry>
        </mxCell>
        <mxCell id="Utul95HGGhNCa7YosB5a-47" style="edgeStyle=orthogonalEdgeStyle;rounded=0;orthogonalLoop=1;jettySize=auto;html=1;exitX=0;exitY=0.5;exitDx=0;exitDy=0;entryX=1;entryY=0.5;entryDx=0;entryDy=0;strokeColor=none;" edge="1" parent="1" source="Utul95HGGhNCa7YosB5a-44" target="Utul95HGGhNCa7YosB5a-2">
          <mxGeometry relative="1" as="geometry" />
        </mxCell>
        <mxCell id="Utul95HGGhNCa7YosB5a-48" style="edgeStyle=orthogonalEdgeStyle;rounded=0;orthogonalLoop=1;jettySize=auto;html=1;exitX=0;exitY=0.5;exitDx=0;exitDy=0;entryX=1;entryY=0.5;entryDx=0;entryDy=0;shape=flexArrow;" edge="1" parent="1" source="Utul95HGGhNCa7YosB5a-44" target="Utul95HGGhNCa7YosB5a-2">
          <mxGeometry relative="1" as="geometry" />
        </mxCell>
        <mxCell id="Utul95HGGhNCa7YosB5a-44" value="Monitoring" style="whiteSpace=wrap;html=1;aspect=fixed;" vertex="1" parent="1">
          <mxGeometry x="710" y="70" width="80" height="80" as="geometry" />
        </mxCell>
        <mxCell id="Utul95HGGhNCa7YosB5a-49" value="ML service details" style="text;html=1;align=center;verticalAlign=middle;whiteSpace=wrap;rounded=0;" vertex="1" parent="1">
          <mxGeometry x="330" y="420" width="180" height="30" as="geometry" />
        </mxCell>
      </root>
    </mxGraphModel>
  </diagram>
</mxfile>
